<svg width="3822" height="1270" xmlns="http://www.w3.org/2000/svg" xmlns:xlink="http://www.w3.org/1999/xlink" xml:space="preserve" overflow="hidden"><g transform="translate(-371 -939)"><g><rect x="461" y="1117" width="307" height="805" fill="#3d5a9e" fill-opacity="1"/><text fill="#FFFFFF" fill-opacity="1" font-family="Microsoft YaHei,Microsoft YaHei_MSFontService,sans-serif" font-style="normal" font-variant="normal" font-weight="400" font-stretch="normal" font-size="46" text-anchor="start" direction="ltr" writing-mode="lr-tb" unicode-bidi="normal" text-decoration="none" transform="matrix(1 0 0 1 500.028 1509)">多模态互动</text><text fill="#FFFFFF" fill-opacity="1" font-family="Microsoft YaHei,Microsoft YaHei_MSFontService,sans-serif" font-style="normal" font-variant="normal" font-weight="400" font-stretch="normal" font-size="46" text-anchor="start" direction="ltr" writing-mode="lr-tb" unicode-bidi="normal" text-decoration="none" transform="matrix(1 0 0 1 569.351 1564)">SDK</text><rect x="973" y="1182" width="268" height="181" fill="#3d5a9e" fill-opacity="1"/><text fill="#FFFFFF" fill-opacity="1" font-family="Microsoft YaHei,Microsoft YaHei_MSFontService,sans-serif" font-style="normal" font-variant="normal" font-weight="400" font-stretch="normal" font-size="46" text-anchor="start" direction="ltr" writing-mode="lr-tb" unicode-bidi="normal" text-decoration="none" transform="matrix(1 0 0 1 1015.49 1289)">语音增强</text><rect x="1350" y="1271" width="195" height="92.0001" fill="#3d5a9e" fill-opacity="1"/><text fill="#FFFFFF" fill-opacity="1" font-family="Microsoft YaHei,Microsoft YaHei_MSFontService,sans-serif" font-style="normal" font-variant="normal" font-weight="400" font-stretch="normal" font-size="46" text-anchor="start" direction="ltr" writing-mode="lr-tb" unicode-bidi="normal" text-decoration="none" transform="matrix(1 0 0 1 1403.15 1333)">ASR</text><text fill="#2c3e50" fill-opacity="1" font-family="Microsoft YaHei,Microsoft YaHei_MSFontService,sans-serif" font-style="normal" font-variant="normal" font-weight="400" font-stretch="normal" font-size="46" text-anchor="start" direction="ltr" writing-mode="lr-tb" unicode-bidi="normal" text-decoration="none" transform="matrix(1 0 0 1 824.061 1244)">语音</text><path d="M768 1271.85 950.147 1271.85 950.147 1274.15 768 1274.15ZM945.564 1259.25 973.064 1273 945.564 1286.75Z" fill="#3d5a9e" fill-rule="nonzero" fill-opacity="1"/><rect x="1794" y="1049" width="993" height="928" stroke="#595959" stroke-width="2.29167" stroke-linecap="butt" stroke-linejoin="miter" stroke-miterlimit="8" stroke-dasharray="9.16667 6.875" stroke-opacity="1" fill="none"/><rect x="1877" y="1259" width="817" height="130" fill="#c9a227" fill-opacity="1"/><text fill="#FFFFFF" fill-opacity="1" font-family="Microsoft YaHei,Microsoft YaHei_MSFontService,sans-serif" font-style="normal" font-variant="normal" font-weight="400" font-stretch="normal" font-size="46" text-anchor="start" direction="ltr" writing-mode="lr-tb" unicode-bidi="normal" text-decoration="none" transform="matrix(1 0 0 1 2101.93 1340)">语音模型｜智能体</text><rect x="1877" y="1427" width="817" height="130" fill="#c9a227" fill-opacity="1"/><text fill="#FFFFFF" fill-opacity="1" font-family="Microsoft YaHei,Microsoft YaHei_MSFontService,sans-serif" font-style="normal" font-variant="normal" font-weight="400" font-stretch="normal" font-size="46" text-anchor="start" direction="ltr" writing-mode="lr-tb" unicode-bidi="normal" text-decoration="none" transform="matrix(1 0 0 1 2101.93 1509)">文本模型｜智能体</text><rect x="1877" y="1595" width="817" height="130" fill="#c9a227" fill-opacity="1"/><text fill="#FFFFFF" fill-opacity="1" font-family="Microsoft YaHei,Microsoft YaHei_MSFontService,sans-serif" font-style="normal" font-variant="normal" font-weight="400" font-stretch="normal" font-size="46" text-anchor="start" direction="ltr" writing-mode="lr-tb" unicode-bidi="normal" text-decoration="none" transform="matrix(1 0 0 1 2079.01 1677)">多模态模型｜智能体</text><rect x="1877" y="1764" width="817" height="129" fill="#c9a227" fill-opacity="1"/><text fill="#FFFFFF" fill-opacity="1" font-family="Microsoft YaHei,Microsoft YaHei_MSFontService,sans-serif" font-style="normal" font-variant="normal" font-weight="400" font-stretch="normal" font-size="46" text-anchor="start" direction="ltr" writing-mode="lr-tb" unicode-bidi="normal" text-decoration="none" transform="matrix(1 0 0 1 2170.68 1845)">视觉类模型</text><text fill="#2c3e50" fill-opacity="1" font-family="Microsoft YaHei,Microsoft YaHei_MSFontService,sans-serif" font-style="normal" font-variant="normal" font-weight="400" font-stretch="normal" font-size="55" text-anchor="start" direction="ltr" writing-mode="lr-tb" unicode-bidi="normal" text-decoration="none" transform="matrix(1 0 0 1 2146.1 1154)">智能体及模型</text><path d="M1241 1221.85 1771.07 1221.85 1771.07 1224.15 1241 1224.15ZM1766.49 1209.25 1793.99 1223 1766.49 1236.75Z" fill="#3d5a9e" fill-rule="nonzero" fill-opacity="1"/><text fill="#2c3e50" fill-opacity="1" font-family="Microsoft YaHei,Microsoft YaHei_MSFontService,sans-serif" font-style="normal" font-variant="normal" font-weight="400" font-stretch="normal" font-size="46" text-anchor="start" direction="ltr" writing-mode="lr-tb" unicode-bidi="normal" text-decoration="none" transform="matrix(1 0 0 1 1652.06 1178)">语音</text><path d="M1241 1315.85 1326.78 1315.85 1326.78 1318.15 1241 1318.15ZM1322.19 1303.25 1349.69 1317 1322.19 1330.75Z" fill="#3d5a9e" fill-rule="nonzero" fill-opacity="1"/><path d="M1545 1315.85 1606.59 1315.85 1606.59 1469.33 1605.44 1468.19 1771.46 1468.19 1771.46 1470.48 1604.3 1470.48 1604.3 1317 1605.44 1318.15 1545 1318.15ZM1766.88 1455.58 1794.38 1469.33 1766.88 1483.08Z" fill="#3d5a9e" fill-rule="nonzero" fill-opacity="1"/><path d="M768 1467.85 1771.05 1467.85 1771.05 1470.15 768 1470.15ZM1766.47 1455.25 1793.97 1469 1766.47 1482.75Z" fill="#3d5a9e" fill-rule="nonzero" fill-opacity="1"/><text fill="#2c3e50" fill-opacity="1" font-family="Microsoft YaHei,Microsoft YaHei_MSFontService,sans-serif" font-style="normal" font-variant="normal" font-weight="400" font-stretch="normal" font-size="46" text-anchor="start" direction="ltr" writing-mode="lr-tb" unicode-bidi="normal" text-decoration="none" transform="matrix(1 0 0 1 824.061 1432)">消息</text><text fill="#2c3e50" fill-opacity="1" font-family="Microsoft YaHei,Microsoft YaHei_MSFontService,sans-serif" font-style="normal" font-variant="normal" font-weight="400" font-stretch="normal" font-size="46" text-anchor="start" direction="ltr" writing-mode="lr-tb" unicode-bidi="normal" text-decoration="none" transform="matrix(1 0 0 1 1652.06 1431)">消息</text><rect x="1187" y="1635" width="268" height="185" stroke="#595959" stroke-width="2.29167" stroke-linecap="butt" stroke-linejoin="miter" stroke-miterlimit="8" stroke-dasharray="9.16667 6.875" stroke-opacity="1" fill="none"/><path d="M768 1616.85 1771.05 1616.85 1771.05 1619.15 768 1619.15ZM1766.47 1604.25 1793.97 1618 1766.47 1631.75Z" fill="#3d5a9e" fill-rule="nonzero" fill-opacity="1"/><text fill="#2c3e50" fill-opacity="1" font-family="Microsoft YaHei,Microsoft YaHei_MSFontService,sans-serif" font-style="normal" font-variant="normal" font-weight="400" font-stretch="normal" font-size="46" text-anchor="start" direction="ltr" writing-mode="lr-tb" unicode-bidi="normal" text-decoration="none" transform="matrix(1 0 0 1 824.061 1573)">视频流</text><text fill="#2c3e50" fill-opacity="1" font-family="Microsoft YaHei,Microsoft YaHei_MSFontService,sans-serif" font-style="normal" font-variant="normal" font-weight="400" font-stretch="normal" font-size="46" text-anchor="start" direction="ltr" writing-mode="lr-tb" unicode-bidi="normal" text-decoration="none" transform="matrix(1 0 0 1 1605.78 1573)">视频流</text><rect x="1226" y="1662" width="195" height="62.9999" fill="#3d5a9e" fill-opacity="1"/><text fill="#FFFFFF" fill-opacity="1" font-family="Microsoft YaHei,Microsoft YaHei_MSFontService,sans-serif" font-style="normal" font-variant="normal" font-weight="400" font-stretch="normal" font-size="46" text-anchor="start" direction="ltr" writing-mode="lr-tb" unicode-bidi="normal" text-decoration="none" transform="matrix(1 0 0 1 1277.25 1710)">抽帧</text><rect x="1226" y="1734" width="194" height="63.0002" fill="#3d5a9e" fill-opacity="1"/><text fill="#FFFFFF" fill-opacity="1" font-family="Microsoft YaHei,Microsoft YaHei_MSFontService,sans-serif" font-style="normal" font-variant="normal" font-weight="400" font-stretch="normal" font-size="46" text-anchor="start" direction="ltr" writing-mode="lr-tb" unicode-bidi="normal" text-decoration="none" transform="matrix(1 0 0 1 1277.2 1782)">增强</text><path d="M768 1616.85 1034.15 1616.85 1034.15 1726.96 1033 1725.82 1164.12 1725.82 1164.12 1728.11 1031.86 1728.11 1031.86 1618 1033 1619.15 768 1619.15ZM1159.53 1713.21 1187.03 1726.96 1159.53 1740.71Z" fill="#3d5a9e" fill-rule="nonzero" fill-opacity="1"/><path d="M0.0066207-1.14581 316.112 0.680695 316.099 2.97232-0.0066207 1.14581ZM311.602-11.9497 339.022 1.95892 311.443 15.5498Z" fill="#3d5a9e" fill-rule="nonzero" fill-opacity="1" transform="matrix(1 0 0 -1 1455 1726.96)"/><text fill="#2c3e50" fill-opacity="1" font-family="Microsoft YaHei,Microsoft YaHei_MSFontService,sans-serif" font-style="normal" font-variant="normal" font-weight="400" font-stretch="normal" font-size="46" text-anchor="start" direction="ltr" writing-mode="lr-tb" unicode-bidi="normal" text-decoration="none" transform="matrix(1 0 0 1 1650.62 1699)">图片</text><path d="M768 1891.85 1771.05 1891.85 1771.05 1894.15 768 1894.15ZM1766.47 1879.25 1793.97 1893 1766.47 1906.75Z" fill="#3d5a9e" fill-rule="nonzero" fill-opacity="1"/><text fill="#2c3e50" fill-opacity="1" font-family="Microsoft YaHei,Microsoft YaHei_MSFontService,sans-serif" font-style="normal" font-variant="normal" font-weight="400" font-stretch="normal" font-size="46" text-anchor="start" direction="ltr" writing-mode="lr-tb" unicode-bidi="normal" text-decoration="none" transform="matrix(1 0 0 1 824.061 1856)">文件</text><text fill="#2c3e50" fill-opacity="1" font-family="Microsoft YaHei,Microsoft YaHei_MSFontService,sans-serif" font-style="normal" font-variant="normal" font-weight="400" font-stretch="normal" font-size="46" text-anchor="start" direction="ltr" writing-mode="lr-tb" unicode-bidi="normal" text-decoration="none" transform="matrix(1 0 0 1 1650.03 1859)">文件</text><path d="M0-1.14583 803.249-1.14583 803.249 165.859 802.103 164.713 1003.05 164.713 1003.05 167.004 800.957 167.004 800.957 0 802.103 1.14583 0 1.14583ZM998.47 152.109 1025.97 165.859 998.47 179.609Z" fill="#3d5a9e" fill-rule="nonzero" fill-opacity="1" transform="matrix(1 0 0 -1 768 1890.86)"/><rect x="3362" y="1048" width="506" height="379" fill="#3d5a9e" fill-opacity="1"/><text fill="#FFFFFF" fill-opacity="1" font-family="Microsoft YaHei,Microsoft YaHei_MSFontService,sans-serif" font-style="normal" font-variant="normal" font-weight="700" font-stretch="normal" font-size="46" text-anchor="start" direction="ltr" writing-mode="lr-tb" unicode-bidi="normal" text-decoration="none" transform="matrix(1 0 0 1 3523.23 1144)">生成能力</text><text fill="#FFFFFF" fill-opacity="1" font-family="Microsoft YaHei,Microsoft YaHei_MSFontService,sans-serif" font-style="normal" font-variant="normal" font-weight="400" font-stretch="normal" font-size="46" text-anchor="start" direction="ltr" writing-mode="lr-tb" unicode-bidi="normal" text-decoration="none" transform="matrix(1 0 0 1 3500.32 1199)">文生图服务</text><text fill="#FFFFFF" fill-opacity="1" font-family="Microsoft YaHei,Microsoft YaHei_MSFontService,sans-serif" font-style="normal" font-variant="normal" font-weight="400" font-stretch="normal" font-size="46" text-anchor="start" direction="ltr" writing-mode="lr-tb" unicode-bidi="normal" text-decoration="none" transform="matrix(1 0 0 1 3500.32 1254)">图生图服务</text><text fill="#FFFFFF" fill-opacity="1" font-family="Microsoft YaHei,Microsoft YaHei_MSFontService,sans-serif" font-style="normal" font-variant="normal" font-weight="400" font-stretch="normal" font-size="46" text-anchor="start" direction="ltr" writing-mode="lr-tb" unicode-bidi="normal" text-decoration="none" transform="matrix(1 0 0 1 3477.4 1309)">资源云播服务</text><text fill="#FFFFFF" fill-opacity="1" font-family="Microsoft YaHei,Microsoft YaHei_MSFontService,sans-serif" font-style="normal" font-variant="normal" font-weight="400" font-stretch="normal" font-size="46" text-anchor="start" direction="ltr" writing-mode="lr-tb" unicode-bidi="normal" text-decoration="none" transform="matrix(1 0 0 1 3477.4 1364)">云端渲染服务</text><rect x="3362" y="1595" width="506" height="379" fill="#3d5a9e" fill-opacity="1"/><text fill="#FFFFFF" fill-opacity="1" font-family="Microsoft YaHei,Microsoft YaHei_MSFontService,sans-serif" font-style="normal" font-variant="normal" font-weight="400" font-stretch="normal" font-size="46" text-anchor="start" direction="ltr" writing-mode="lr-tb" unicode-bidi="normal" text-decoration="none" transform="matrix(1 0 0 1 3455.06 1801)">多模态互动</text><text fill="#FFFFFF" fill-opacity="1" font-family="Microsoft YaHei,Microsoft YaHei_MSFontService,sans-serif" font-style="normal" font-variant="normal" font-weight="400" font-stretch="normal" font-size="46" text-anchor="start" direction="ltr" writing-mode="lr-tb" unicode-bidi="normal" text-decoration="none" transform="matrix(1 0 0 1 3684.22 1801)">SDK</text><path d="M2787 1210.85 3338.8 1210.85 3338.8 1213.15 2787 1213.15ZM3334.22 1198.25 3361.72 1212 3334.22 1225.75Z" fill="#3d5a9e" fill-rule="nonzero" fill-opacity="1"/><path d="M2787 1712.85 3338.8 1712.85 3338.8 1715.15 2787 1715.15ZM3334.22 1700.25 3361.72 1714 3334.22 1727.75Z" fill="#3d5a9e" fill-rule="nonzero" fill-opacity="1"/><rect x="2941" y="1831" width="221" height="90.9998" fill="#3d5a9e" fill-opacity="1"/><text fill="#FFFFFF" fill-opacity="1" font-family="Microsoft YaHei,Microsoft YaHei_MSFontService,sans-serif" font-style="normal" font-variant="normal" font-weight="400" font-stretch="normal" font-size="46" text-anchor="start" direction="ltr" writing-mode="lr-tb" unicode-bidi="normal" text-decoration="none" transform="matrix(1 0 0 1 3012.05 1893)">TTS</text><path d="M2787 1875.85 2918.17 1875.85 2918.17 1878.15 2787 1878.15ZM2913.58 1863.25 2941.08 1877 2913.58 1890.75Z" fill="#3d5a9e" fill-rule="nonzero" fill-opacity="1"/><text fill="#2c3e50" fill-opacity="1" font-family="Microsoft YaHei,Microsoft YaHei_MSFontService,sans-serif" font-style="normal" font-variant="normal" font-weight="400" font-stretch="normal" font-size="46" text-anchor="start" direction="ltr" writing-mode="lr-tb" unicode-bidi="normal" text-decoration="none" transform="matrix(1 0 0 1 2822.05 1845)">文本</text><text fill="#2c3e50" fill-opacity="1" font-family="Microsoft YaHei,Microsoft YaHei_MSFontService,sans-serif" font-style="normal" font-variant="normal" font-weight="400" font-stretch="normal" font-size="46" text-anchor="start" direction="ltr" writing-mode="lr-tb" unicode-bidi="normal" text-decoration="none" transform="matrix(1 0 0 1 3186.93 1848)">音频流</text><path d="M3162 1875.85 3338.64 1875.85 3338.64 1878.15 3162 1878.15ZM3334.05 1863.25 3361.55 1877 3334.05 1890.75Z" fill="#3d5a9e" fill-rule="nonzero" fill-opacity="1"/><text fill="#2c3e50" fill-opacity="1" font-family="Microsoft YaHei,Microsoft YaHei_MSFontService,sans-serif" font-style="normal" font-variant="normal" font-weight="400" font-stretch="normal" font-size="46" text-anchor="start" direction="ltr" writing-mode="lr-tb" unicode-bidi="normal" text-decoration="none" transform="matrix(1 0 0 1 3006.03 1659)">消息流</text><text fill="#2c3e50" fill-opacity="1" font-family="Microsoft YaHei,Microsoft YaHei_MSFontService,sans-serif" font-style="normal" font-variant="normal" font-weight="400" font-stretch="normal" font-size="46" text-anchor="start" direction="ltr" writing-mode="lr-tb" unicode-bidi="normal" text-decoration="none" transform="matrix(1 0 0 1 3006.03 1714)">音频流</text><text fill="#2c3e50" fill-opacity="1" font-family="Microsoft YaHei,Microsoft YaHei_MSFontService,sans-serif" font-style="normal" font-variant="normal" font-weight="400" font-stretch="normal" font-size="46" text-anchor="start" direction="ltr" writing-mode="lr-tb" unicode-bidi="normal" text-decoration="none" transform="matrix(1 0 0 1 3006.03 1769)">视频流</text><path d="M3616.15 1427 3616.15 1572.32 3613.85 1572.32 3613.85 1427ZM3628.75 1567.74 3615 1595.24 3601.25 1567.74Z" fill="#3d5a9e" fill-rule="nonzero" fill-opacity="1"/><text fill="#2c3e50" fill-opacity="1" font-family="Microsoft YaHei,Microsoft YaHei_MSFontService,sans-serif" font-style="normal" font-variant="normal" font-weight="400" font-stretch="normal" font-size="46" text-anchor="start" direction="ltr" writing-mode="lr-tb" unicode-bidi="normal" text-decoration="none" transform="matrix(1 0 0 1 3640.44 1502)">音频流</text><text fill="#2c3e50" fill-opacity="1" font-family="Microsoft YaHei,Microsoft YaHei_MSFontService,sans-serif" font-style="normal" font-variant="normal" font-weight="400" font-stretch="normal" font-size="46" text-anchor="start" direction="ltr" writing-mode="lr-tb" unicode-bidi="normal" text-decoration="none" transform="matrix(1 0 0 1 3640.44 1557)">视频流</text><rect x="377.5" y="944.5" width="3595" height="1095" stroke="#404040" stroke-width="4.58333" stroke-linecap="butt" stroke-linejoin="miter" stroke-miterlimit="8" stroke-dasharray="18.3333 13.75" stroke-opacity="1" fill="none"/><text fill="#2c3e50" fill-opacity="1" font-family="Microsoft YaHei,Microsoft YaHei_MSFontService,sans-serif" font-style="normal" font-variant="normal" font-weight="700" font-stretch="normal" font-size="48" text-anchor="start" direction="ltr" writing-mode="lr-tb" unicode-bidi="normal" text-decoration="none" transform="matrix(1 0 0 1 2010.07 1955)">OpenAI</text><text fill="#2c3e50" fill-opacity="1" font-family="Microsoft YaHei,Microsoft YaHei_MSFontService,sans-serif" font-style="normal" font-variant="normal" font-weight="700" font-stretch="normal" font-size="48" text-anchor="start" direction="ltr" writing-mode="lr-tb" unicode-bidi="normal" text-decoration="none" transform="matrix(1 0 0 1 2207.15 1955)">LLM&amp;</text><text fill="#2c3e50" fill-opacity="1" font-family="Microsoft YaHei,Microsoft YaHei_MSFontService,sans-serif" font-style="normal" font-variant="normal" font-weight="700" font-stretch="normal" font-size="48" text-anchor="start" direction="ltr" writing-mode="lr-tb" unicode-bidi="normal" text-decoration="none" transform="matrix(1 0 0 1 2367.57 1955)">WS</text><text fill="#2c3e50" fill-opacity="1" font-family="Microsoft YaHei,Microsoft YaHei_MSFontService,sans-serif" font-style="normal" font-variant="normal" font-weight="700" font-stretch="normal" font-size="48" text-anchor="start" direction="ltr" writing-mode="lr-tb" unicode-bidi="normal" text-decoration="none" transform="matrix(1 0 0 1 2462.67 1955)">API</text><rect x="2941" y="1929" width="221" height="72.9999" fill="#3d5a9e" fill-opacity="1"/><text fill="#FFFFFF" fill-opacity="1" font-family="Microsoft YaHei,Microsoft YaHei_MSFontService,sans-serif" font-style="normal" font-variant="normal" font-weight="400" font-stretch="normal" font-size="46" text-anchor="start" direction="ltr" writing-mode="lr-tb" unicode-bidi="normal" text-decoration="none" transform="matrix(1 0 0 1 2982.83 1982)">数字人</text><text fill="#2c3e50" fill-opacity="1" font-family="Microsoft YaHei,Microsoft YaHei_MSFontService,sans-serif" font-style="normal" font-variant="normal" font-weight="400" font-stretch="normal" font-size="46" text-anchor="start" direction="ltr" writing-mode="lr-tb" unicode-bidi="normal" text-decoration="none" transform="matrix(1 0 0 1 3028.06 1172)">FC</text><text fill="#2c3e50" fill-opacity="1" font-family="Microsoft YaHei,Microsoft YaHei_MSFontService,sans-serif" font-style="normal" font-variant="normal" font-weight="400" font-stretch="normal" font-size="46" text-anchor="start" direction="ltr" writing-mode="lr-tb" unicode-bidi="normal" text-decoration="none" transform="matrix(1 0 0 1 3097.39 1172)">HTTP</text><rect x="3523" y="2094" width="86" height="76" fill="#3d5a9e" fill-opacity="1"/><text fill="#2c3e50" fill-opacity="1" font-family="Microsoft YaHei,Microsoft YaHei_MSFontService,sans-serif" font-style="normal" font-variant="normal" font-weight="400" font-stretch="normal" font-size="55" text-anchor="start" direction="ltr" writing-mode="lr-tb" unicode-bidi="normal" text-decoration="none" transform="matrix(1 0 0 1 3697.69 2153)">智能互动引擎</text><rect x="2853" y="2100" width="86" height="76" fill="#c9a227" fill-opacity="1"/><text fill="#2c3e50" fill-opacity="1" font-family="Microsoft YaHei,Microsoft YaHei_MSFontService,sans-serif" font-style="normal" font-variant="normal" font-weight="400" font-stretch="normal" font-size="55" text-anchor="start" direction="ltr" writing-mode="lr-tb" unicode-bidi="normal" text-decoration="none" transform="matrix(1 0 0 1 3028.06 2159)">开发者实现</text></g></g></svg>