<svg width="3786" height="1820" xmlns="http://www.w3.org/2000/svg" xmlns:xlink="http://www.w3.org/1999/xlink" xml:space="preserve" overflow="hidden"><g transform="translate(-343 -627)"><g><rect x="352.5" y="1000.5" width="462" height="416" stroke="#7F7F7F" stroke-width="4.58333" stroke-linecap="butt" stroke-linejoin="miter" stroke-miterlimit="8" stroke-dasharray="18.3333 13.75" stroke-opacity="1" fill="#FFFFFF" fill-opacity="1"/><rect x="401" y="1198" width="362" height="154" fill="#3d5a9e" fill-opacity="1"/><text fill="#FFFFFF" fill-opacity="1" font-family="Microsoft YaHei,Microsoft YaHei_MSFontService,sans-serif" font-style="normal" font-variant="normal" font-weight="400" font-stretch="normal" font-size="55" text-anchor="start" direction="ltr" writing-mode="lr-tb" unicode-bidi="normal" text-decoration="none" transform="matrix(1 0 0 1 500.414 1262)">端</text><text fill="#FFFFFF" fill-opacity="1" font-family="Microsoft YaHei,Microsoft YaHei_MSFontService,sans-serif" font-style="normal" font-variant="normal" font-weight="400" font-stretch="normal" font-size="55" text-anchor="start" direction="ltr" writing-mode="lr-tb" unicode-bidi="normal" text-decoration="none" transform="matrix(1 0 0 1 555.414 1262)">SDK</text><text fill="#FFFFFF" fill-opacity="1" font-family="Microsoft YaHei,Microsoft YaHei_MSFontService,sans-serif" font-style="normal" font-variant="normal" font-weight="400" font-stretch="normal" font-size="55" text-anchor="start" direction="ltr" writing-mode="lr-tb" unicode-bidi="normal" text-decoration="none" transform="matrix(1 0 0 1 437.852 1328)">Websocket</text><text fill="#2c3e50" fill-opacity="1" font-family="Microsoft YaHei,Microsoft YaHei_MSFontService,sans-serif" font-style="normal" font-variant="normal" font-weight="700" font-stretch="normal" font-size="55" text-anchor="start" direction="ltr" writing-mode="lr-tb" unicode-bidi="normal" text-decoration="none" transform="matrix(1 0 0 1 501.299 1125)">客户端</text><rect x="1015" y="1202" width="432" height="155" fill="#3d5a9e" fill-opacity="1"/><text fill="#FFFFFF" fill-opacity="1" font-family="Microsoft YaHei,Microsoft YaHei_MSFontService,sans-serif" font-style="normal" font-variant="normal" font-weight="400" font-stretch="normal" font-size="55" text-anchor="start" direction="ltr" writing-mode="lr-tb" unicode-bidi="normal" text-decoration="none" transform="matrix(1 0 0 1 1098.25 1299)">百度</text><text fill="#FFFFFF" fill-opacity="1" font-family="Microsoft YaHei,Microsoft YaHei_MSFontService,sans-serif" font-style="normal" font-variant="normal" font-weight="400" font-stretch="normal" font-size="55" text-anchor="start" direction="ltr" writing-mode="lr-tb" unicode-bidi="normal" text-decoration="none" transform="matrix(1 0 0 1 1208.25 1299)">RTC</text><text fill="#FFFFFF" fill-opacity="1" font-family="Microsoft YaHei,Microsoft YaHei_MSFontService,sans-serif" font-style="normal" font-variant="normal" font-weight="400" font-stretch="normal" font-size="55" text-anchor="start" direction="ltr" writing-mode="lr-tb" unicode-bidi="normal" text-decoration="none" transform="matrix(1 0 0 1 1308.33 1299)">网</text><rect x="2677" y="1205" width="432" height="155" fill="#3d5a9e" fill-opacity="1"/><text fill="#FFFFFF" fill-opacity="1" font-family="Microsoft YaHei,Microsoft YaHei_MSFontService,sans-serif" font-style="normal" font-variant="normal" font-weight="400" font-stretch="normal" font-size="55" text-anchor="start" direction="ltr" writing-mode="lr-tb" unicode-bidi="normal" text-decoration="none" transform="matrix(1 0 0 1 2746.75 1269)">LLM/Agent</text><text fill="#FFFFFF" fill-opacity="1" font-family="Microsoft YaHei,Microsoft YaHei_MSFontService,sans-serif" font-style="normal" font-variant="normal" font-weight="400" font-stretch="normal" font-size="55" text-anchor="start" direction="ltr" writing-mode="lr-tb" unicode-bidi="normal" text-decoration="none" transform="matrix(1 0 0 1 2823.91 1335)">/RAG</text><rect x="2674" y="994" width="435" height="154" fill="#3d5a9e" fill-opacity="1"/><text fill="#FFFFFF" fill-opacity="1" font-family="Microsoft YaHei,Microsoft YaHei_MSFontService,sans-serif" font-style="normal" font-variant="normal" font-weight="400" font-stretch="normal" font-size="55" text-anchor="start" direction="ltr" writing-mode="lr-tb" unicode-bidi="normal" text-decoration="none" transform="matrix(1 0 0 1 2720.69 1058)">Function</text><text fill="#FFFFFF" fill-opacity="1" font-family="Microsoft YaHei,Microsoft YaHei_MSFontService,sans-serif" font-style="normal" font-variant="normal" font-weight="400" font-stretch="normal" font-size="55" text-anchor="start" direction="ltr" writing-mode="lr-tb" unicode-bidi="normal" text-decoration="none" transform="matrix(1 0 0 1 2965.33 1058)">Call</text><text fill="#FFFFFF" fill-opacity="1" font-family="Microsoft YaHei,Microsoft YaHei_MSFontService,sans-serif" font-style="normal" font-variant="normal" font-weight="400" font-stretch="normal" font-size="55" text-anchor="start" direction="ltr" writing-mode="lr-tb" unicode-bidi="normal" text-decoration="none" transform="matrix(1 0 0 1 2817.52 1124)">/MCP</text><text fill="#2c3e50" fill-opacity="1" font-family="Microsoft YaHei,Microsoft YaHei_MSFontService,sans-serif" font-style="normal" font-variant="normal" font-weight="400" font-stretch="normal" font-size="55" text-anchor="start" direction="ltr" writing-mode="lr-tb" unicode-bidi="normal" text-decoration="none" transform="matrix(1 0 0 1 855.974 1135)">文本</text><text fill="#2c3e50" fill-opacity="1" font-family="Microsoft YaHei,Microsoft YaHei_MSFontService,sans-serif" font-style="normal" font-variant="normal" font-weight="400" font-stretch="normal" font-size="55" text-anchor="start" direction="ltr" writing-mode="lr-tb" unicode-bidi="normal" text-decoration="none" transform="matrix(1 0 0 1 855.974 1201)">语音</text><text fill="#2c3e50" fill-opacity="1" font-family="Microsoft YaHei,Microsoft YaHei_MSFontService,sans-serif" font-style="normal" font-variant="normal" font-weight="400" font-stretch="normal" font-size="55" text-anchor="start" direction="ltr" writing-mode="lr-tb" unicode-bidi="normal" text-decoration="none" transform="matrix(1 0 0 1 855.974 1333)">图片</text><text fill="#2c3e50" fill-opacity="1" font-family="Microsoft YaHei,Microsoft YaHei_MSFontService,sans-serif" font-style="normal" font-variant="normal" font-weight="400" font-stretch="normal" font-size="55" text-anchor="start" direction="ltr" writing-mode="lr-tb" unicode-bidi="normal" text-decoration="none" transform="matrix(1 0 0 1 855.974 1399)">视频流</text><text fill="#2c3e50" fill-opacity="1" font-family="Microsoft YaHei,Microsoft YaHei_MSFontService,sans-serif" font-style="normal" font-variant="normal" font-weight="400" font-stretch="normal" font-size="55" text-anchor="start" direction="ltr" writing-mode="lr-tb" unicode-bidi="normal" text-decoration="none" transform="matrix(1 0 0 1 855.974 1465)">短视频</text><path d="M1447 1277.85 1791.21 1277.85 1791.21 1280.15 1447 1280.15ZM1786.63 1265.25 1814.13 1279 1786.63 1292.75Z" fill="#3d5a9e" fill-rule="nonzero" fill-opacity="1"/><text fill="#2c3e50" fill-opacity="1" font-family="Microsoft YaHei,Microsoft YaHei_MSFontService,sans-serif" font-style="normal" font-variant="normal" font-weight="400" font-stretch="normal" font-size="55" text-anchor="start" direction="ltr" writing-mode="lr-tb" unicode-bidi="normal" text-decoration="none" transform="matrix(1 0 0 1 1511.52 1247)">文本</text><text fill="#2c3e50" fill-opacity="1" font-family="Microsoft YaHei,Microsoft YaHei_MSFontService,sans-serif" font-style="normal" font-variant="normal" font-weight="400" font-stretch="normal" font-size="55" text-anchor="start" direction="ltr" writing-mode="lr-tb" unicode-bidi="normal" text-decoration="none" transform="matrix(1 0 0 1 1637.56 1247)">语音</text><rect x="2674" y="1408" width="432" height="216" fill="#3d5a9e" fill-opacity="1"/><text fill="#FFFFFF" fill-opacity="1" font-family="Microsoft YaHei,Microsoft YaHei_MSFontService,sans-serif" font-style="normal" font-variant="normal" font-weight="400" font-stretch="normal" font-size="55" text-anchor="start" direction="ltr" writing-mode="lr-tb" unicode-bidi="normal" text-decoration="none" transform="matrix(1 0 0 1 2779.83 1470)">语音指令</text><text fill="#FFFFFF" fill-opacity="1" font-family="Microsoft YaHei,Microsoft YaHei_MSFontService,sans-serif" font-style="normal" font-variant="normal" font-weight="400" font-stretch="normal" font-size="55" text-anchor="start" direction="ltr" writing-mode="lr-tb" unicode-bidi="normal" text-decoration="none" transform="matrix(1 0 0 1 2779.83 1536)">应用组件</text><text fill="#FFFFFF" fill-opacity="1" font-family="Microsoft YaHei,Microsoft YaHei_MSFontService,sans-serif" font-style="normal" font-variant="normal" font-weight="400" font-stretch="normal" font-size="55" text-anchor="start" direction="ltr" writing-mode="lr-tb" unicode-bidi="normal" text-decoration="none" transform="matrix(1 0 0 1 2779.83 1602)">内容资源</text><rect x="2674" y="1912" width="432" height="155" fill="#3d5a9e" fill-opacity="1"/><text fill="#FFFFFF" fill-opacity="1" font-family="Microsoft YaHei,Microsoft YaHei_MSFontService,sans-serif" font-style="normal" font-variant="normal" font-weight="400" font-stretch="normal" font-size="55" text-anchor="start" direction="ltr" writing-mode="lr-tb" unicode-bidi="normal" text-decoration="none" transform="matrix(1 0 0 1 2779.83 2009)">视觉理解</text><text fill="#2c3e50" fill-opacity="1" font-family="Microsoft YaHei,Microsoft YaHei_MSFontService,sans-serif" font-style="normal" font-variant="normal" font-weight="400" font-stretch="normal" font-size="55" text-anchor="start" direction="ltr" writing-mode="lr-tb" unicode-bidi="normal" text-decoration="none" transform="matrix(1 0 0 1 2087.05 2080)">关联视觉上下文</text><path d="M0 1.14583-44.1883 1.14583-43.0425 0-43.0425 859.349-44.1883 858.203 98.8087 858.203 98.8087 860.495-45.3342 860.495-45.3342-1.14583 0-1.14583ZM94.2254 845.599 121.725 859.349 94.2254 873.099Z" fill="#3d5a9e" fill-rule="nonzero" fill-opacity="1" transform="matrix(-6.12323e-17 -1 -1 6.12323e-17 2889.35 2066.73)"/><path d="M0-1.14583 80.0638-1.14583 80.0638 208.453 78.9179 207.307 405.521 207.307 405.521 209.599 77.7721 209.599 77.7721 0 78.9179 1.14583 0 1.14583ZM400.937 194.703 428.437 208.453 400.937 222.203Z" fill="#3d5a9e" fill-rule="nonzero" fill-opacity="1" transform="matrix(1 0 0 -1 2246 1279.45)"/><path d="M2246 1277.85 2325.97 1277.85 2325.97 1515.62 2324.83 1514.47 2651.52 1514.47 2651.52 1516.76 2323.68 1516.76 2323.68 1279 2324.83 1280.15 2246 1280.15ZM2646.94 1501.87 2674.44 1515.62 2646.94 1529.37Z" fill="#3d5a9e" fill-rule="nonzero" fill-opacity="1"/><path d="M2246 1277.85 2323.38 1277.85 2323.38 1988.97 2322.24 1987.82 2651.52 1987.82 2651.52 1990.11 2321.09 1990.11 2321.09 1279 2322.24 1280.15 2246 1280.15ZM2646.94 1975.22 2674.44 1988.97 2646.94 2002.72Z" fill="#3d5a9e" fill-rule="nonzero" fill-opacity="1"/><text fill="#2c3e50" fill-opacity="1" font-family="Microsoft YaHei,Microsoft YaHei_MSFontService,sans-serif" font-style="normal" font-variant="normal" font-weight="400" font-stretch="normal" font-size="55" text-anchor="start" direction="ltr" writing-mode="lr-tb" unicode-bidi="normal" text-decoration="none" transform="matrix(1 0 0 1 2378.92 1052)">指令控制</text><text fill="#2c3e50" fill-opacity="1" font-family="Microsoft YaHei,Microsoft YaHei_MSFontService,sans-serif" font-style="normal" font-variant="normal" font-weight="400" font-stretch="normal" font-size="55" text-anchor="start" direction="ltr" writing-mode="lr-tb" unicode-bidi="normal" text-decoration="none" transform="matrix(1 0 0 1 2378.92 1265)">聊天问答</text><text fill="#2c3e50" fill-opacity="1" font-family="Microsoft YaHei,Microsoft YaHei_MSFontService,sans-serif" font-style="normal" font-variant="normal" font-weight="400" font-stretch="normal" font-size="55" text-anchor="start" direction="ltr" writing-mode="lr-tb" unicode-bidi="normal" text-decoration="none" transform="matrix(1 0 0 1 2379.91 1504)">垂类资源</text><text fill="#2c3e50" fill-opacity="1" font-family="Microsoft YaHei,Microsoft YaHei_MSFontService,sans-serif" font-style="normal" font-variant="normal" font-weight="400" font-stretch="normal" font-size="55" text-anchor="start" direction="ltr" writing-mode="lr-tb" unicode-bidi="normal" text-decoration="none" transform="matrix(1 0 0 1 2378.92 1966)">视觉意图</text><rect x="3653.5" y="1797.5" width="472" height="280" stroke="#3d5a9e" stroke-width="4.58333" stroke-linecap="butt" stroke-linejoin="miter" stroke-miterlimit="8" stroke-opacity="1" fill="none"/><path d="M0 1.14583-353.419 1.14583-352.274 0-352.274 2658.32-353.419 2657.17 697.145 2657.17 697.145 2659.46-354.565 2659.46-354.565-1.14583 0-1.14583ZM692.561 2644.57 720.061 2658.32 692.561 2672.07Z" fill="#3d5a9e" fill-rule="nonzero" fill-opacity="1" transform="matrix(-6.12323e-17 -1 -1 6.12323e-17 3889.32 2077.06)"/><text fill="#2c3e50" fill-opacity="1" font-family="Microsoft YaHei,Microsoft YaHei_MSFontService,sans-serif" font-style="normal" font-variant="normal" font-weight="400" font-stretch="normal" font-size="55" text-anchor="start" direction="ltr" writing-mode="lr-tb" unicode-bidi="normal" text-decoration="none" transform="matrix(1 0 0 1 1264.08 2397)">指令｜文本｜音频</text><text fill="#2c3e50" fill-opacity="1" font-family="Microsoft YaHei,Microsoft YaHei_MSFontService,sans-serif" font-style="normal" font-variant="normal" font-weight="400" font-stretch="normal" font-size="55" text-anchor="start" direction="ltr" writing-mode="lr-tb" unicode-bidi="normal" text-decoration="none" transform="matrix(1 0 0 1 1720.12 2397)">| </text><text fill="#2c3e50" fill-opacity="1" font-family="Microsoft YaHei,Microsoft YaHei_MSFontService,sans-serif" font-style="normal" font-variant="normal" font-weight="400" font-stretch="normal" font-size="55" text-anchor="start" direction="ltr" writing-mode="lr-tb" unicode-bidi="normal" text-decoration="none" transform="matrix(1 0 0 1 1751.06 2397)">图像｜视频</text><path d="M785.933 1274.24 991.795 1277.71 991.757 1280 785.894 1276.53ZM790.264 1289.21 763 1275 790.728 1261.72ZM987.425 1265.03 1014.69 1279.24 986.962 1292.53Z" fill="#3d5a9e" fill-rule="nonzero" fill-opacity="1"/><rect x="1815" y="1562" width="431" height="383" fill="#3d5a9e" fill-opacity="1"/><text fill="#FFFFFF" fill-opacity="1" font-family="Microsoft YaHei,Microsoft YaHei_MSFontService,sans-serif" font-style="normal" font-variant="normal" font-weight="400" font-stretch="normal" font-size="55" text-anchor="start" direction="ltr" writing-mode="lr-tb" unicode-bidi="normal" text-decoration="none" transform="matrix(1 0 0 1 1920.42 1740)">视觉模型</text><text fill="#FFFFFF" fill-opacity="1" font-family="Microsoft YaHei,Microsoft YaHei_MSFontService,sans-serif" font-style="normal" font-variant="normal" font-weight="400" font-stretch="normal" font-size="55" text-anchor="start" direction="ltr" writing-mode="lr-tb" unicode-bidi="normal" text-decoration="none" transform="matrix(1 0 0 1 1939.06 1806)">/Agent</text><path d="M1447 1277.85 1632.48 1277.85 1632.48 1753.06 1631.33 1751.91 1792.75 1751.91 1792.75 1754.2 1630.19 1754.2 1630.19 1279 1631.33 1280.15 1447 1280.15ZM1788.16 1739.31 1815.66 1753.06 1788.16 1766.81Z" fill="#3d5a9e" fill-rule="nonzero" fill-opacity="1"/><path d="M3109 1068.85 3390.93 1068.85 3390.93 1515.26 3389.78 1514.11 3647.64 1514.11 3647.64 1516.4 3388.63 1516.4 3388.63 1070 3389.78 1071.15 3109 1071.15ZM3643.06 1501.51 3670.56 1515.26 3643.06 1529.01Z" fill="#3d5a9e" fill-rule="nonzero" fill-opacity="1"/><path d="M0-1.14583 283.444-1.14583 283.444 0.652854 282.298-0.492979 541.68-0.492979 541.68 1.79869 281.152 1.79869 281.152 0 282.298 1.14583 0 1.14583ZM537.096-13.0971 564.596 0.652854 537.096 14.4029Z" fill="#3d5a9e" fill-rule="nonzero" fill-opacity="1" transform="matrix(1 0 0 -1 3106 1515.65)"/><path d="M0-1.14583 283.444-1.14583 283.444 474.004 282.298 472.858 541.68 472.858 541.68 475.149 281.152 475.149 281.152 0 282.298 1.14583 0 1.14583ZM537.096 460.254 564.596 474.004 537.096 487.754Z" fill="#3d5a9e" fill-rule="nonzero" fill-opacity="1" transform="matrix(1 0 0 -1 3106 1989)"/><rect x="3693" y="650" width="405" height="114" fill="#c9a227" fill-opacity="1"/><text fill="#FFFFFF" fill-opacity="1" font-family="Microsoft YaHei,Microsoft YaHei_MSFontService,sans-serif" font-style="normal" font-variant="normal" font-weight="400" font-stretch="normal" font-size="55" text-anchor="start" direction="ltr" writing-mode="lr-tb" unicode-bidi="normal" text-decoration="none" transform="matrix(1 0 0 1 3785.69 727)">三方服务</text><path d="M2889.85 970.456 2889.85 912.854 3629.99 912.854 3629.99 915.146 2891 915.146 2892.15 914 2892.15 970.456ZM2904.75 965.872 2891 993.372 2877.25 965.872ZM3625.4 900.25 3652.9 914 3625.4 927.75Z" fill="#3d5a9e" fill-rule="nonzero" fill-opacity="1"/><rect x="348" y="1797" width="86.0003" height="77" fill="#3d5a9e" fill-opacity="1"/><text fill="#2c3e50" fill-opacity="1" font-family="Microsoft YaHei,Microsoft YaHei_MSFontService,sans-serif" font-style="normal" font-variant="normal" font-weight="400" font-stretch="normal" font-size="55" text-anchor="start" direction="ltr" writing-mode="lr-tb" unicode-bidi="normal" text-decoration="none" transform="matrix(1 0 0 1 522.863 1856)">智能互动引擎</text><rect x="348" y="1935" width="86.0003" height="77" fill="#c9a227" fill-opacity="1"/><text fill="#2c3e50" fill-opacity="1" font-family="Microsoft YaHei,Microsoft YaHei_MSFontService,sans-serif" font-style="normal" font-variant="normal" font-weight="400" font-stretch="normal" font-size="55" text-anchor="start" direction="ltr" writing-mode="lr-tb" unicode-bidi="normal" text-decoration="none" transform="matrix(1 0 0 1 522.863 1994)">开发者实现</text><path d="M2246.01 1277.85 2654.83 1280.42 2654.81 1282.71 2245.99 1280.15ZM2650.32 1267.79 2677.74 1281.71 2650.15 1295.29Z" fill="#3d5a9e" fill-rule="nonzero" fill-opacity="1"/><text fill="#2c3e50" fill-opacity="1" font-family="Microsoft YaHei,Microsoft YaHei_MSFontService,sans-serif" font-style="normal" font-variant="normal" font-weight="400" font-stretch="normal" font-size="55" text-anchor="start" direction="ltr" writing-mode="lr-tb" unicode-bidi="normal" text-decoration="none" transform="matrix(1 0 0 1 1511.52 1733)">图像</text><text fill="#2c3e50" fill-opacity="1" font-family="Microsoft YaHei,Microsoft YaHei_MSFontService,sans-serif" font-style="normal" font-variant="normal" font-weight="400" font-stretch="normal" font-size="55" text-anchor="start" direction="ltr" writing-mode="lr-tb" unicode-bidi="normal" text-decoration="none" transform="matrix(1 0 0 1 1637.56 1733)">视频流</text><path d="M3109 1280.85 3390.79 1280.85 3390.79 1515.25 3389.65 1514.11 3647.38 1514.11 3647.38 1516.4 3388.5 1516.4 3388.5 1282 3389.65 1283.15 3109 1283.15ZM3642.8 1501.5 3670.3 1515.25 3642.8 1529Z" fill="#3d5a9e" fill-rule="nonzero" fill-opacity="1"/><rect x="3691" y="1820" width="404" height="104" fill="#3d5a9e" fill-opacity="1"/><text fill="#FFFFFF" fill-opacity="1" font-family="Microsoft YaHei,Microsoft YaHei_MSFontService,sans-serif" font-style="normal" font-variant="normal" font-weight="400" font-stretch="normal" font-size="55" text-anchor="start" direction="ltr" writing-mode="lr-tb" unicode-bidi="normal" text-decoration="none" transform="matrix(1 0 0 1 3810.5 1892)">数字人</text><rect x="3691" y="1953" width="404" height="104" fill="#3d5a9e" fill-opacity="1"/><text fill="#FFFFFF" fill-opacity="1" font-family="Microsoft YaHei,Microsoft YaHei_MSFontService,sans-serif" font-style="normal" font-variant="normal" font-weight="400" font-stretch="normal" font-size="55" text-anchor="start" direction="ltr" writing-mode="lr-tb" unicode-bidi="normal" text-decoration="none" transform="matrix(1 0 0 1 3845.17 2025)">TTS</text><rect x="2674" y="1671" width="432" height="194" fill="#c9a227" fill-opacity="1"/><text fill="#FFFFFF" fill-opacity="1" font-family="Microsoft YaHei,Microsoft YaHei_MSFontService,sans-serif" font-style="normal" font-variant="normal" font-weight="400" font-stretch="normal" font-size="55" text-anchor="start" direction="ltr" writing-mode="lr-tb" unicode-bidi="normal" text-decoration="none" transform="matrix(1 0 0 1 2779.83 1755)">人设特征</text><text fill="#FFFFFF" fill-opacity="1" font-family="Microsoft YaHei,Microsoft YaHei_MSFontService,sans-serif" font-style="normal" font-variant="normal" font-weight="400" font-stretch="normal" font-size="55" text-anchor="start" direction="ltr" writing-mode="lr-tb" unicode-bidi="normal" text-decoration="none" transform="matrix(1 0 0 1 2779.83 1821)">话题场景</text><path d="M2097 1280.85 2325.26 1280.85 2325.26 1767.37 2324.12 1766.22 2665.36 1766.22 2665.36 1768.52 2322.97 1768.52 2322.97 1282 2324.12 1283.15 2097 1283.15ZM2660.78 1753.62 2688.28 1767.37 2660.78 1781.12Z" fill="#3d5a9e" fill-rule="nonzero" fill-opacity="1"/><text fill="#2c3e50" fill-opacity="1" font-family="Microsoft YaHei,Microsoft YaHei_MSFontService,sans-serif" font-style="normal" font-variant="normal" font-weight="400" font-stretch="normal" font-size="55" text-anchor="start" direction="ltr" writing-mode="lr-tb" unicode-bidi="normal" text-decoration="none" transform="matrix(1 0 0 1 2372.44 1748)">自定义意图</text><rect x="1814" y="1202" width="432" height="155" fill="#3d5a9e" fill-opacity="1"/><text fill="#FFFFFF" fill-opacity="1" font-family="Microsoft YaHei,Microsoft YaHei_MSFontService,sans-serif" font-style="normal" font-variant="normal" font-weight="400" font-stretch="normal" font-size="55" text-anchor="start" direction="ltr" writing-mode="lr-tb" unicode-bidi="normal" text-decoration="none" transform="matrix(1 0 0 1 1919.66 1299)">意图识别</text><rect x="3670" y="1416" width="435" height="199" fill="#3d5a9e" fill-opacity="1"/><text fill="#FFFFFF" fill-opacity="1" font-family="Microsoft YaHei,Microsoft YaHei_MSFontService,sans-serif" font-style="normal" font-variant="normal" font-weight="400" font-stretch="normal" font-size="55" text-anchor="start" direction="ltr" writing-mode="lr-tb" unicode-bidi="normal" text-decoration="none" transform="matrix(1 0 0 1 3777.76 1469)">标签处理</text><text fill="#FFFFFF" fill-opacity="1" font-family="Microsoft YaHei,Microsoft YaHei_MSFontService,sans-serif" font-style="normal" font-variant="normal" font-weight="400" font-stretch="normal" font-size="55" text-anchor="start" direction="ltr" writing-mode="lr-tb" unicode-bidi="normal" text-decoration="none" transform="matrix(1 0 0 1 3726.77 1535)">（动作</text><text fill="#FFFFFF" fill-opacity="1" font-family="Microsoft YaHei,Microsoft YaHei_MSFontService,sans-serif" font-style="normal" font-variant="normal" font-weight="400" font-stretch="normal" font-size="55" text-anchor="start" direction="ltr" writing-mode="lr-tb" unicode-bidi="normal" text-decoration="none" transform="matrix(1 0 0 1 3891.77 1535)">/</text><text fill="#FFFFFF" fill-opacity="1" font-family="Microsoft YaHei,Microsoft YaHei_MSFontService,sans-serif" font-style="normal" font-variant="normal" font-weight="400" font-stretch="normal" font-size="55" text-anchor="start" direction="ltr" writing-mode="lr-tb" unicode-bidi="normal" text-decoration="none" transform="matrix(1 0 0 1 3915.26 1535)">表情</text><text fill="#FFFFFF" fill-opacity="1" font-family="Microsoft YaHei,Microsoft YaHei_MSFontService,sans-serif" font-style="normal" font-variant="normal" font-weight="400" font-stretch="normal" font-size="55" text-anchor="start" direction="ltr" writing-mode="lr-tb" unicode-bidi="normal" text-decoration="none" transform="matrix(1 0 0 1 4025.26 1535)">/</text><text fill="#FFFFFF" fill-opacity="1" font-family="Microsoft YaHei,Microsoft YaHei_MSFontService,sans-serif" font-style="normal" font-variant="normal" font-weight="400" font-stretch="normal" font-size="55" text-anchor="start" direction="ltr" writing-mode="lr-tb" unicode-bidi="normal" text-decoration="none" transform="matrix(1 0 0 1 3777.76 1601)">自定义）</text><rect x="3655.5" y="630.5" width="471" height="668" stroke="#3d5a9e" stroke-width="4.58333" stroke-linecap="butt" stroke-linejoin="miter" stroke-miterlimit="8" stroke-opacity="1" fill="none"/><rect x="3692" y="911" width="405" height="104" fill="#3d5a9e" fill-opacity="1"/><text fill="#FFFFFF" fill-opacity="1" font-family="Microsoft YaHei,Microsoft YaHei_MSFontService,sans-serif" font-style="normal" font-variant="normal" font-weight="400" font-stretch="normal" font-size="55" text-anchor="start" direction="ltr" writing-mode="lr-tb" unicode-bidi="normal" text-decoration="none" transform="matrix(1 0 0 1 3784.39 983)">定时任务</text><rect x="3692" y="1036" width="405" height="104" fill="#3d5a9e" fill-opacity="1"/><text fill="#FFFFFF" fill-opacity="1" font-family="Microsoft YaHei,Microsoft YaHei_MSFontService,sans-serif" font-style="normal" font-variant="normal" font-weight="400" font-stretch="normal" font-size="55" text-anchor="start" direction="ltr" writing-mode="lr-tb" unicode-bidi="normal" text-decoration="none" transform="matrix(1 0 0 1 3784.39 1108)">生图服务</text><rect x="3692" y="1166" width="405" height="104" fill="#3d5a9e" fill-opacity="1"/><text fill="#FFFFFF" fill-opacity="1" font-family="Microsoft YaHei,Microsoft YaHei_MSFontService,sans-serif" font-style="normal" font-variant="normal" font-weight="400" font-stretch="normal" font-size="55" text-anchor="start" direction="ltr" writing-mode="lr-tb" unicode-bidi="normal" text-decoration="none" transform="matrix(1 0 0 1 3740.98 1238)">MCP Server</text><rect x="3696" y="781" width="404" height="114" fill="#c9a227" fill-opacity="1"/><text fill="#FFFFFF" fill-opacity="1" font-family="Microsoft YaHei,Microsoft YaHei_MSFontService,sans-serif" font-style="normal" font-variant="normal" font-weight="400" font-stretch="normal" font-size="55" text-anchor="start" direction="ltr" writing-mode="lr-tb" unicode-bidi="normal" text-decoration="none" transform="matrix(1 0 0 1 3787.87 858)">设备控制</text><path d="M0-1.14583 91.9341-1.14583 91.9341 1.35299 90.7883 0.207152 158.659 0.207152 158.659 2.49882 89.6424 2.49882 89.6424 0 90.7883 1.14583 0 1.14583ZM154.076-12.397 181.576 1.35299 154.076 15.103Z" fill="#3d5a9e" fill-rule="nonzero" fill-opacity="1" transform="matrix(1.83697e-16 1 1 -1.83697e-16 3888 1615)"/><path d="M0-1.14583 283.869-1.14583 283.869 263.083 282.724 261.937 542.531 261.937 542.531 264.228 281.578 264.228 281.578 0 282.724 1.14583 0 1.14583ZM537.947 249.333 565.447 263.083 537.947 276.833Z" fill="#3d5a9e" fill-rule="nonzero" fill-opacity="1" transform="matrix(1 0 0 -1 3105 1778.08)"/><rect x="2321" y="2173" width="727" height="187" fill="#3d5a9e" fill-opacity="1"/><text fill="#FFFFFF" fill-opacity="1" font-family="Microsoft YaHei,Microsoft YaHei_MSFontService,sans-serif" font-style="normal" font-variant="normal" font-weight="700" font-stretch="normal" font-size="55" text-anchor="start" direction="ltr" writing-mode="lr-tb" unicode-bidi="normal" text-decoration="none" transform="matrix(1 0 0 1 2354.29 2253)">端到端多模态（语音）模型</text><text fill="#FFFFFF" fill-opacity="1" font-family="Microsoft YaHei,Microsoft YaHei_MSFontService,sans-serif" font-style="normal" font-variant="normal" font-weight="700" font-stretch="normal" font-size="55" text-anchor="start" direction="ltr" writing-mode="lr-tb" unicode-bidi="normal" text-decoration="none" transform="matrix(1 0 0 1 2354.01 2319)">实时翻译模型</text><path d="M1447 1277.85 1631.58 1277.85 1631.58 2265.89 1630.43 2264.75 2298.44 2264.75 2298.44 2267.04 1629.28 2267.04 1629.28 1279 1630.43 1280.15 1447 1280.15ZM2293.85 2252.14 2321.35 2265.89 2293.85 2279.64Z" fill="#3d5a9e" fill-rule="nonzero" fill-opacity="1"/><text fill="#2c3e50" fill-opacity="1" font-family="Microsoft YaHei,Microsoft YaHei_MSFontService,sans-serif" font-style="normal" font-variant="normal" font-weight="400" font-stretch="normal" font-size="55" text-anchor="start" direction="ltr" writing-mode="lr-tb" unicode-bidi="normal" text-decoration="none" transform="matrix(1 0 0 1 1646.62 2232)">音视频流</text><path d="M0 1.14583-69.6897 1.14583-68.5438 0-68.5438 1456.1-69.6891 1454.95 980.401 1455.5 980.4 1457.79-70.8355 1457.25-70.8355-1.14583 0-1.14583ZM977.476 1442.45 1003.16 1459.35 974.222 1469.75Z" fill="#3d5a9e" fill-rule="nonzero" fill-opacity="1" transform="matrix(-6.12323e-17 -1 -1 6.12323e-17 2684.35 2359.16)"/></g></g></svg>